<svg width="24" height="25" viewBox="0 0 24 25" fill="none" xmlns="http://www.w3.org/2000/svg">
<path d="M19.7369 7.90506V18.8006C19.7369 19.3501 19.2611 19.6122 18.6843 20.0216C18.2212 20.3511 17.6317 19.9427 17.6317 19.4038V8.75768C17.6317 8.53557 17.5538 8.324 17.3012 8.19453C17.0486 8.06506 9.1561 3.91567 9.1561 3.91567C9.02873 3.86831 8.47296 3.51779 7.73192 3.89883C7.02772 4.26093 6.64457 4.6546 6.54668 4.83986L15.157 9.55766C15.3854 9.67766 15.5265 9.86292 15.5265 10.1008V21.4711C15.5239 21.5993 15.4863 21.7245 15.4179 21.833C15.3494 21.9415 15.2527 22.0293 15.1381 22.0869C15.0291 22.1406 14.9091 22.1684 14.7876 22.1679C14.6446 22.1696 14.504 22.1317 14.3813 22.0584C14.1549 21.9206 6.19827 17.0417 5.67302 16.7249C5.42039 16.5733 5.12461 16.2628 5.11829 16.0323L5.0004 5.20512C5.0004 4.9967 4.97619 4.62934 5.3046 4.11883C6.03827 2.9778 8.59822 1.67993 9.89398 2.35255L19.3664 7.14718C19.5948 7.26508 19.7369 7.50086 19.7369 7.90506Z" fill="white"/>
</svg>
