<svg width="24" height="24" viewBox="0 0 24 24" fill="none" xmlns="http://www.w3.org/2000/svg">
<path d="M14.9013 11.5117L16.1131 12.7812L14.603 14.3633C14.4911 14.4805 14.4911 14.5977 14.603 14.7148L14.9199 15.0469C15.0318 15.1641 15.1436 15.1641 15.2555 15.0469L16.7656 13.4648L19.0961 15.9062L17.5859 17.4883C17.4741 17.6055 17.4741 17.7161 17.5859 17.8203L17.9029 18.1719C18.0147 18.2891 18.1266 18.2891 18.2385 18.1719L19.7486 16.5898L20.9231 17.8203C21.035 17.9375 21.0909 18.0807 21.0909 18.25C21.0909 18.4193 21.035 18.569 20.9231 18.6992L17.9402 21.8242C17.8159 21.9414 17.6729 22 17.5114 22C17.3498 22 17.2131 21.9414 17.1012 21.8242L11.0794 15.5156L7.5744 19.1875C7.37553 19.3958 7.13317 19.5 6.8473 19.5C6.56143 19.5 6.31907 19.3958 6.12021 19.1875L4.7033 17.6836C4.50444 17.4753 4.40501 17.2246 4.40501 16.9316C4.40501 16.6387 4.50444 16.388 4.7033 16.1797L8.20827 12.5078L2.16779 6.17969C2.05593 6.0625 2 5.91927 2 5.75C2 5.58073 2.05593 5.4375 2.16779 5.32031L5.15075 2.17578C5.27504 2.05859 5.41797 2 5.57955 2C5.74112 2 5.87784 2.05859 5.9897 2.17578L7.16424 3.40625L5.65412 4.98828C5.54226 5.10547 5.54226 5.22266 5.65412 5.33984L5.97106 5.67188C6.08292 5.78906 6.19478 5.78906 6.30664 5.67188L7.81676 4.08984L10.1472 6.53125L8.63707 8.11328C8.52521 8.23047 8.52521 8.34766 8.63707 8.46484L8.95401 8.79688C9.06587 8.91406 9.17773 8.91406 9.2896 8.79688L10.7997 7.21484L12.0115 8.50391L17.9215 2.3125C18.1204 2.10417 18.3596 2 18.6393 2C18.9189 2 19.1582 2.10417 19.3571 2.3125L20.7926 3.81641C20.9915 4.02474 21.0909 4.27539 21.0909 4.56836C21.0909 4.86133 20.9915 5.11198 20.7926 5.32031L14.9013 11.5117ZM3.23047 17.7812C3.25533 17.8854 3.29883 17.9701 3.36097 18.0352L5.78462 20.5742C5.84677 20.6393 5.92756 20.6849 6.02699 20.7109C5.96484 20.8411 5.91513 20.9193 5.87784 20.9453L2.59659 22C2.2983 22 2.12429 21.974 2.07457 21.9219C2.02486 21.8698 2 21.6875 2 21.375L3.00675 17.9375C3.03161 17.9115 3.10618 17.8594 3.23047 17.7812Z" fill="url(#paint0_linear)"/>
<defs>
<linearGradient id="paint0_linear" x1="21.0909" y1="2" x2="1.09787" y2="21.0534" gradientUnits="userSpaceOnUse">
<stop offset="0.583333" stop-color="#3742FA"/>
<stop offset="1" stop-color="#6A20C9"/>
</linearGradient>
</defs>
</svg>
