<svg width="26" height="24" viewBox="0 0 26 24" fill="none" xmlns="http://www.w3.org/2000/svg">
<path fill-rule="evenodd" clip-rule="evenodd" d="M0.333496 2.66675C0.333496 1.56218 1.22893 0.666748 2.3335 0.666748H23.6668C24.7714 0.666748 25.6668 1.56218 25.6668 2.66675C25.6668 3.77132 24.7714 4.66675 23.6668 4.66675H2.3335C1.22893 4.66675 0.333496 3.77132 0.333496 2.66675ZM0.333496 12.0001C0.333496 10.8955 1.22893 10.0001 2.3335 10.0001H23.6668C24.7714 10.0001 25.6668 10.8955 25.6668 12.0001C25.6668 13.1047 24.7714 14.0001 23.6668 14.0001H2.3335C1.22893 14.0001 0.333496 13.1047 0.333496 12.0001ZM0.333496 21.3334C0.333496 20.2288 1.22893 19.3334 2.3335 19.3334H23.6668C24.7714 19.3334 25.6668 20.2288 25.6668 21.3334C25.6668 22.438 24.7714 23.3334 23.6668 23.3334H2.3335C1.22893 23.3334 0.333496 22.438 0.333496 21.3334Z" fill="url(#paint0_linear)"/>
<defs>
<linearGradient id="paint0_linear" x1="25.6668" y1="0.666747" x2="3.11738" y2="25.8283" gradientUnits="userSpaceOnUse">
<stop offset="0.583333" stop-color="#3742FA"/>
<stop offset="1" stop-color="#6A20C9"/>
</linearGradient>
</defs>
</svg>
