<svg width="25" height="25" viewBox="0 0 25 25" fill="none" xmlns="http://www.w3.org/2000/svg">
<path d="M5.5 22.5H19.5C20.603 22.5 21.5 21.603 21.5 20.5V6.5C21.5 5.397 20.603 4.5 19.5 4.5H17.5V2.5H15.5V4.5H9.5V2.5H7.5V4.5H5.5C4.397 4.5 3.5 5.397 3.5 6.5V20.5C3.5 21.603 4.397 22.5 5.5 22.5ZM19.5 8.5L19.501 20.5H5.5V8.5H19.5Z" fill="white"/>
<path d="M7.5 11.5H9.5V13.5H7.5V11.5ZM7.5 15.5H9.5V17.5H7.5V15.5ZM11.5 11.5H13.5V13.5H11.5V11.5ZM11.5 15.5H13.5V17.5H11.5V15.5ZM15.5 11.5H17.5V13.5H15.5V11.5ZM15.5 15.5H17.5V17.5H15.5V15.5Z" fill="white"/>
</svg>
