<svg width="37" height="36" viewBox="0 0 37 36" fill="none" xmlns="http://www.w3.org/2000/svg">
<path d="M18.5 33C10.2155 33 3.5 26.2845 3.5 18C3.5 9.7155 10.2155 3 18.5 3C26.7845 3 33.5 9.7155 33.5 18C33.5 26.2845 26.7845 33 18.5 33ZM17.0045 24L27.6095 13.3935L25.4885 11.2725L17.0045 19.758L12.761 15.5145L10.64 17.6355L17.0045 24Z" fill="url(#paint0_linear)"/>
<path d="M18.5 33C10.2155 33 3.5 26.2845 3.5 18C3.5 9.7155 10.2155 3 18.5 3C26.7845 3 33.5 9.7155 33.5 18C33.5 26.2845 26.7845 33 18.5 33ZM17.0045 24L27.6095 13.3935L25.4885 11.2725L17.0045 19.758L12.761 15.5145L10.64 17.6355L17.0045 24Z" fill="url(#paint1_linear)"/>
<path d="M18.5 33C10.2155 33 3.5 26.2845 3.5 18C3.5 9.7155 10.2155 3 18.5 3C26.7845 3 33.5 9.7155 33.5 18C33.5 26.2845 26.7845 33 18.5 33ZM17.0045 24L27.6095 13.3935L25.4885 11.2725L17.0045 19.758L12.761 15.5145L10.64 17.6355L17.0045 24Z" fill="url(#paint2_linear)"/>
<defs>
<linearGradient id="paint0_linear" x1="33.5" y1="3" x2="3.47573" y2="32.9757" gradientUnits="userSpaceOnUse">
<stop offset="0.583333" stop-color="#3742FA"/>
<stop offset="1" stop-color="#6A20C9"/>
</linearGradient>
<linearGradient id="paint1_linear" x1="33.5" y1="3" x2="3.47573" y2="32.9757" gradientUnits="userSpaceOnUse">
<stop offset="0.583333" stop-color="#3742FA"/>
<stop offset="1" stop-color="#6A20C9"/>
</linearGradient>
<linearGradient id="paint2_linear" x1="33.5" y1="3" x2="3.47573" y2="32.9757" gradientUnits="userSpaceOnUse">
<stop offset="0.583333" stop-color="#3742FA"/>
<stop offset="1" stop-color="#6A20C9"/>
</linearGradient>
</defs>
</svg>
