<svg width="24" height="25" viewBox="0 0 24 25" fill="none" xmlns="http://www.w3.org/2000/svg">
<path d="M21.598 11.7321C21.4777 11.6412 21.3384 11.5786 21.1906 11.5488C21.0428 11.5191 20.8902 11.5229 20.744 11.5601C20.5017 11.6278 20.2516 11.6641 20 11.6681C18.346 11.6681 17 10.3221 16.997 8.73008C17.002 8.69608 17.013 8.59608 17.014 8.56208C17.0205 8.40575 16.9902 8.25007 16.9255 8.10761C16.8608 7.96515 16.7634 7.83991 16.6414 7.742C16.5193 7.64409 16.376 7.57624 16.2229 7.54395C16.0698 7.51165 15.9112 7.51581 15.76 7.55608C15.5125 7.62581 15.2571 7.66345 15 7.66808C13.346 7.66808 12 6.32208 12 4.66808C12 4.45108 12.031 4.22408 12.099 3.95208C12.1375 3.79682 12.1382 3.6346 12.101 3.47902C12.0638 3.32344 11.9899 3.17905 11.8854 3.05797C11.7808 2.93688 11.6488 2.84264 11.5003 2.78315C11.3518 2.72366 11.1912 2.70066 11.032 2.71608C8.55548 2.9469 6.25504 4.09635 4.58347 5.93819C2.9119 7.78002 1.99028 10.1808 2.00002 12.6681C2.00002 18.1821 6.48602 22.6681 12 22.6681C17.514 22.6681 22 18.1821 22 12.6681C22 12.6191 21.997 12.5711 21.993 12.5081C21.9897 12.3574 21.9524 12.2094 21.884 12.075C21.8156 11.9407 21.7179 11.8235 21.598 11.7321ZM8.50002 6.66808C8.89784 6.66808 9.27937 6.82612 9.56068 7.10742C9.84198 7.38873 10 7.77026 10 8.16808C10 8.56591 9.84198 8.94744 9.56068 9.22874C9.27937 9.51005 8.89784 9.66808 8.50002 9.66808C8.10219 9.66808 7.72066 9.51005 7.43935 9.22874C7.15805 8.94744 7.00002 8.56591 7.00002 8.16808C7.00002 7.77026 7.15805 7.38873 7.43935 7.10742C7.72066 6.82612 8.10219 6.66808 8.50002 6.66808ZM6.50002 14.6681C6.30303 14.6681 6.10798 14.6293 5.92599 14.5539C5.744 14.4785 5.57864 14.368 5.43935 14.2287C5.30007 14.0895 5.18958 13.9241 5.1142 13.7421C5.03881 13.5601 5.00002 13.3651 5.00002 13.1681C5.00002 12.9711 5.03881 12.776 5.1142 12.5941C5.18958 12.4121 5.30007 12.2467 5.43935 12.1074C5.57864 11.9681 5.744 11.8576 5.92599 11.7823C6.10798 11.7069 6.30303 11.6681 6.50002 11.6681C6.89784 11.6681 7.27937 11.8261 7.56068 12.1074C7.84198 12.3887 8.00002 12.7703 8.00002 13.1681C8.00002 13.5659 7.84198 13.9474 7.56068 14.2287C7.27937 14.51 6.89784 14.6681 6.50002 14.6681ZM9.50002 18.6681C9.10219 18.6681 8.72066 18.51 8.43935 18.2287C8.15805 17.9474 8.00002 17.5659 8.00002 17.1681C8.00002 16.7703 8.15805 16.3887 8.43935 16.1074C8.72066 15.8261 9.10219 15.6681 9.50002 15.6681C9.89784 15.6681 10.2794 15.8261 10.5607 16.1074C10.842 16.3887 11 16.7703 11 17.1681C11 17.5659 10.842 17.9474 10.5607 18.2287C10.2794 18.51 9.89784 18.6681 9.50002 18.6681ZM12 12.1681C12 11.7703 12.1581 11.3887 12.4394 11.1074C12.7207 10.8261 13.1022 10.6681 13.5 10.6681C13.8978 10.6681 14.2794 10.8261 14.5607 11.1074C14.842 11.3887 15 11.7703 15 12.1681C15 12.5659 14.842 12.9474 14.5607 13.2287C14.2794 13.51 13.8978 13.6681 13.5 13.6681C13.1022 13.6681 12.7207 13.51 12.4394 13.2287C12.1581 12.9474 12 12.5659 12 12.1681ZM15.5 18.6681C15.1022 18.6681 14.7207 18.51 14.4394 18.2287C14.1581 17.9474 14 17.5659 14 17.1681C14 16.7703 14.1581 16.3887 14.4394 16.1074C14.7207 15.8261 15.1022 15.6681 15.5 15.6681C15.8978 15.6681 16.2794 15.8261 16.5607 16.1074C16.842 16.3887 17 16.7703 17 17.1681C17 17.5659 16.842 17.9474 16.5607 18.2287C16.2794 18.51 15.8978 18.6681 15.5 18.6681Z" fill="white"/>
</svg>
