<svg width="24" height="25" viewBox="0 0 24 25" fill="none" xmlns="http://www.w3.org/2000/svg">
<path fill-rule="evenodd" clip-rule="evenodd" d="M12 2.66797C6.47768 2.66797 2 7.14565 2 12.668C2 18.1903 6.47768 22.668 12 22.668C17.5223 22.668 22 18.1903 22 12.668C22 7.14565 17.5223 2.66797 12 2.66797ZM12.0305 16.1767C12.8708 16.1767 13.4987 15.7291 13.9143 14.834H15.5C15.2832 15.7471 14.8698 16.4489 14.2599 16.9392C13.632 17.4251 12.8888 17.668 12.0305 17.668C11.2535 17.65 10.6052 17.461 10.0857 17.1012C9.55712 16.7548 9.17312 16.3544 8.93369 15.9001C8.86141 15.7516 8.7959 15.6099 8.73717 15.475C8.68296 15.3355 8.63779 15.1601 8.60165 14.9487C8.53388 14.5528 8.5 13.7926 8.5 12.668C8.5 11.5254 8.53388 10.7606 8.60165 10.3738C8.67393 9.98691 8.78461 9.67427 8.93369 9.43585C9.17312 8.98151 9.55712 8.57665 10.0857 8.22128C10.6052 7.8614 11.2535 7.67697 12.0305 7.66797C12.9837 7.67697 13.7607 7.95812 14.3616 8.51142C14.9624 9.06923 15.3419 9.75974 15.5 10.5829H13.9143C13.7924 10.1871 13.571 9.84971 13.2502 9.5708C12.9159 9.3054 12.5094 9.16819 12.0305 9.1592C11.6781 9.16819 11.3754 9.23792 11.1225 9.36837C10.865 9.50333 10.6571 9.67202 10.499 9.87445C10.3048 10.0859 10.176 10.358 10.1128 10.6909C10.0405 11.0418 10.0044 11.7008 10.0044 12.668C10.0044 13.6351 10.0405 14.2897 10.1128 14.6315C10.176 14.9734 10.3048 15.2501 10.499 15.4615C10.6571 15.6639 10.865 15.8281 11.1225 15.9541C11.3754 16.1025 11.6781 16.1767 12.0305 16.1767Z" fill="white"/>
</svg>
