<svg width="20" height="21" viewBox="0 0 20 21" fill="none" xmlns="http://www.w3.org/2000/svg">
<path d="M10 0.667969C4.47768 0.667969 0 5.14565 0 10.668C0 16.1903 4.47768 20.668 10 20.668C15.5223 20.668 20 16.1903 20 10.668C20 5.14565 15.5223 0.667969 10 0.667969ZM10.7143 15.4894C10.7143 15.5876 10.6339 15.668 10.5357 15.668H9.46429C9.36607 15.668 9.28571 15.5876 9.28571 15.4894V9.41797C9.28571 9.31975 9.36607 9.2394 9.46429 9.2394H10.5357C10.6339 9.2394 10.7143 9.31975 10.7143 9.41797V12.4537V15.4894ZM10 7.81083C9.71963 7.8051 9.45267 7.68971 9.25641 7.4894C9.06014 7.28909 8.95022 7.01983 8.95022 6.7394C8.95022 6.45897 9.06014 6.18971 9.25641 5.9894C9.45267 5.78909 9.71963 5.67369 10 5.66797C10.2804 5.67369 10.5473 5.78909 10.7436 5.9894C10.9399 6.18971 11.0498 6.45897 11.0498 6.7394C11.0498 7.01983 10.9399 7.28909 10.7436 7.4894C10.5473 7.68971 10.2804 7.8051 10 7.81083Z" fill="white"/>
</svg>
