<svg width="24" height="25" viewBox="0 0 24 25" fill="none" xmlns="http://www.w3.org/2000/svg">
<path d="M19 11.168C20.13 11.168 21.16 10.778 22 10.148V19.168C22 20.268 21.1 21.168 20 21.168H4C2.9 21.168 2 20.268 2 19.168V7.16797C2 6.06797 2.9 5.16797 4 5.16797H14.1C14.04 5.48797 14 5.82797 14 6.16797C14 7.64797 14.65 8.95797 15.67 9.87797L12 12.168L5.3 7.97797C5.20546 7.9125 5.09863 7.8669 4.98595 7.84392C4.87328 7.82094 4.75712 7.82105 4.6445 7.84427C4.53187 7.86748 4.42513 7.9133 4.33073 7.97896C4.23632 8.04462 4.15623 8.12876 4.09528 8.22627C4.03434 8.32378 3.99381 8.43265 3.97616 8.54628C3.9585 8.6599 3.96409 8.77593 3.99258 8.88734C4.02106 8.99875 4.07186 9.10322 4.14189 9.19442C4.21192 9.28563 4.29973 9.36168 4.4 9.41797L11.47 13.838C11.79 14.038 12.21 14.038 12.53 13.838L17.3 10.858C17.84 11.048 18.4 11.168 19 11.168ZM16 6.16797C16 7.82797 17.34 9.16797 19 9.16797C20.66 9.16797 22 7.82797 22 6.16797C22 4.50797 20.66 3.16797 19 3.16797C17.34 3.16797 16 4.50797 16 6.16797Z" fill="white"/>
</svg>
