<svg width="21" height="21" viewBox="0 0 21 21" fill="none" xmlns="http://www.w3.org/2000/svg">
<path d="M18.5 0.5H2.5C1.96957 0.5 1.46086 0.710714 1.08579 1.08579C0.710714 1.46086 0.5 1.96957 0.5 2.5V14.5C0.5 15.0304 0.710714 15.5391 1.08579 15.9142C1.46086 16.2893 1.96957 16.5 2.5 16.5H8.5V18.5H5.5V20.5H15.5V18.5H12.5V16.5H18.5C19.0304 16.5 19.5391 16.2893 19.9142 15.9142C20.2893 15.5391 20.5 15.0304 20.5 14.5V2.5C20.5 1.96957 20.2893 1.46086 19.9142 1.08579C19.5391 0.710714 19.0304 0.5 18.5 0.5ZM18.5 14.5H2.5V2.5H18.5V14.5Z" fill="url(#paint0_linear)"/>
<defs>
<linearGradient id="paint0_linear" x1="20.5" y1="0.499999" x2="0.483818" y2="20.4838" gradientUnits="userSpaceOnUse">
<stop offset="0.583333" stop-color="#3742FA"/>
<stop offset="1" stop-color="#6A20C9"/>
</linearGradient>
</defs>
</svg>
