<svg width="24" height="25" viewBox="0 0 24 25" fill="none" xmlns="http://www.w3.org/2000/svg">
<path d="M14.9013 11.6797L16.1131 12.9492L14.603 14.5312C14.4911 14.6484 14.4911 14.7656 14.603 14.8828L14.9199 15.2148C15.0318 15.332 15.1436 15.332 15.2555 15.2148L16.7656 13.6328L19.0961 16.0742L17.5859 17.6562C17.4741 17.7734 17.4741 17.8841 17.5859 17.9883L17.9029 18.3398C18.0147 18.457 18.1266 18.457 18.2385 18.3398L19.7486 16.7578L20.9231 17.9883C21.035 18.1055 21.0909 18.2487 21.0909 18.418C21.0909 18.5872 21.035 18.737 20.9231 18.8672L17.9402 21.9922C17.8159 22.1094 17.6729 22.168 17.5114 22.168C17.3498 22.168 17.2131 22.1094 17.1012 21.9922L11.0794 15.6836L7.5744 19.3555C7.37553 19.5638 7.13317 19.668 6.8473 19.668C6.56143 19.668 6.31907 19.5638 6.12021 19.3555L4.7033 17.8516C4.50444 17.6432 4.40501 17.3926 4.40501 17.0996C4.40501 16.8066 4.50444 16.556 4.7033 16.3477L8.20827 12.6758L2.16779 6.34766C2.05593 6.23047 2 6.08724 2 5.91797C2 5.7487 2.05593 5.60547 2.16779 5.48828L5.15075 2.34375C5.27504 2.22656 5.41797 2.16797 5.57955 2.16797C5.74112 2.16797 5.87784 2.22656 5.9897 2.34375L7.16424 3.57422L5.65412 5.15625C5.54226 5.27344 5.54226 5.39062 5.65412 5.50781L5.97106 5.83984C6.08292 5.95703 6.19478 5.95703 6.30664 5.83984L7.81676 4.25781L10.1472 6.69922L8.63707 8.28125C8.52521 8.39844 8.52521 8.51562 8.63707 8.63281L8.95401 8.96484C9.06587 9.08203 9.17773 9.08203 9.2896 8.96484L10.7997 7.38281L12.0115 8.67188L17.9215 2.48047C18.1204 2.27214 18.3596 2.16797 18.6393 2.16797C18.9189 2.16797 19.1582 2.27214 19.3571 2.48047L20.7926 3.98438C20.9915 4.19271 21.0909 4.44336 21.0909 4.73633C21.0909 5.0293 20.9915 5.27995 20.7926 5.48828L14.9013 11.6797ZM3.23047 17.9492C3.25533 18.0534 3.29883 18.138 3.36097 18.2031L5.78462 20.7422C5.84677 20.8073 5.92756 20.8529 6.02699 20.8789C5.96484 21.0091 5.91513 21.0872 5.87784 21.1133L2.59659 22.168C2.2983 22.168 2.12429 22.1419 2.07457 22.0898C2.02486 22.0378 2 21.8555 2 21.543L3.00675 18.1055C3.03161 18.0794 3.10618 18.0273 3.23047 17.9492Z" fill="white"/>
</svg>
