<svg width="20" height="20" viewBox="0 0 20 20" fill="none" xmlns="http://www.w3.org/2000/svg">
<path d="M12.9013 9.51172L14.1131 10.7813L12.603 12.3633C12.4911 12.4805 12.4911 12.5977 12.603 12.7148L12.9199 13.0469C13.0318 13.1641 13.1436 13.1641 13.2555 13.0469L14.7656 11.4648L17.0961 13.9063L15.5859 15.4883C15.4741 15.6055 15.4741 15.7161 15.5859 15.8203L15.9029 16.1719C16.0147 16.2891 16.1266 16.2891 16.2385 16.1719L17.7486 14.5898L18.9231 15.8203C19.035 15.9375 19.0909 16.0807 19.0909 16.25C19.0909 16.4193 19.035 16.569 18.9231 16.6992L15.9402 19.8242C15.8159 19.9414 15.6729 20 15.5114 20C15.3498 20 15.2131 19.9414 15.1012 19.8242L9.07937 13.5156L5.5744 17.1875C5.37553 17.3958 5.13317 17.5 4.8473 17.5C4.56143 17.5 4.31907 17.3958 4.12021 17.1875L2.7033 15.6836C2.50444 15.4753 2.40501 15.2246 2.40501 14.9316C2.40501 14.6387 2.50444 14.388 2.7033 14.1797L6.20827 10.5078L0.167791 4.17969C0.0559304 4.0625 0 3.91927 0 3.75C0 3.58073 0.0559304 3.4375 0.167791 3.32031L3.15075 0.175781C3.27504 0.0585938 3.41797 0 3.57955 0C3.74112 0 3.87784 0.0585938 3.9897 0.175781L5.16424 1.40625L3.65412 2.98828C3.54226 3.10547 3.54226 3.22266 3.65412 3.33984L3.97106 3.67188C4.08292 3.78906 4.19478 3.78906 4.30664 3.67188L5.81676 2.08984L8.14719 4.53125L6.63707 6.11328C6.52521 6.23047 6.52521 6.34766 6.63707 6.46484L6.95401 6.79688C7.06587 6.91406 7.17773 6.91406 7.28959 6.79688L8.79972 5.21484L10.0115 6.50391L15.9215 0.3125C16.1204 0.104167 16.3596 0 16.6393 0C16.9189 0 17.1582 0.104167 17.3571 0.3125L18.7926 1.81641C18.9915 2.02474 19.0909 2.27539 19.0909 2.56836C19.0909 2.86133 18.9915 3.11198 18.7926 3.32031L12.9013 9.51172ZM1.23047 15.7813C1.25533 15.8854 1.29883 15.9701 1.36097 16.0352L3.78462 18.5742C3.84677 18.6393 3.92756 18.6849 4.02699 18.7109C3.96484 18.8411 3.91513 18.9193 3.87784 18.9453L0.596591 20C0.298295 20 0.12429 19.974 0.0745739 19.9219C0.0248579 19.8698 0 19.6875 0 19.375L1.00675 15.9375C1.03161 15.9115 1.10618 15.8594 1.23047 15.7813Z" fill="#2029C9"/>
</svg>
