<svg width="15" height="15" viewBox="0 0 15 15" fill="none" xmlns="http://www.w3.org/2000/svg">
<path d="M12.8604 10.0774L10.9751 9.8487C10.7535 9.82103 10.5288 9.84711 10.3179 9.92497C10.1071 10.0028 9.91563 10.1304 9.75788 10.2982L8.39217 11.7493C6.28511 10.6107 4.57247 8.791 3.50085 6.55225L4.87398 5.09329C5.19314 4.75418 5.34901 4.28101 5.29705 3.79995L5.08181 1.81261C5.03972 1.4279 4.86596 1.07307 4.59359 0.815673C4.32122 0.558275 3.96928 0.416289 3.60476 0.416749H2.32069C1.48197 0.416749 0.784266 1.15806 0.836223 2.0492C1.22961 8.78405 6.29907 14.1625 12.6303 14.5804C13.4691 14.6356 14.1668 13.8943 14.1668 13.0032V11.6389C14.1742 10.8424 13.6101 10.172 12.8604 10.0774Z" fill="white"/>
</svg>
