<svg width="25" height="25" viewBox="0 0 25 25" fill="none" xmlns="http://www.w3.org/2000/svg">
<path d="M20.5404 16.1386L17.7125 15.8157C17.38 15.7766 17.0429 15.8135 16.7267 15.9234C16.4104 16.0333 16.1232 16.2134 15.8866 16.4503L13.838 18.4989C10.6774 16.8914 8.10846 14.3225 6.50102 11.1619L8.56073 9.10218C9.03947 8.62344 9.27327 7.95543 9.19534 7.27628L8.87246 4.47063C8.80934 3.92751 8.54869 3.42657 8.14014 3.06319C7.73159 2.6998 7.20367 2.49935 6.65689 2.5H4.73079C3.47271 2.5 2.42616 3.54655 2.50409 4.80464C3.09417 14.3127 10.6984 21.9057 20.1953 22.4958C21.4533 22.5737 22.4999 21.5272 22.4999 20.2691V18.343C22.511 17.2185 21.6649 16.2722 20.5404 16.1386Z" fill="white"/>
</svg>
