<svg width="24" height="25" viewBox="0 0 24 25" fill="none" xmlns="http://www.w3.org/2000/svg">
<path d="M15 12.254V6.66797H17V4.66797C17 4.13754 16.7893 3.62883 16.4142 3.25376C16.0391 2.87868 15.5304 2.66797 15 2.66797H9C8.46957 2.66797 7.96086 2.87868 7.58579 3.25376C7.21071 3.62883 7 4.13754 7 4.66797V6.66797H9V12.254L6.293 13.961C6.19996 14.0537 6.12617 14.1639 6.07589 14.2852C6.0256 14.4065 5.99981 14.5366 6 14.668V16.668C6 16.9332 6.10536 17.1875 6.29289 17.3751C6.48043 17.5626 6.73478 17.668 7 17.668H11V20.668L12 22.668L13 20.668V17.668H17C17.2652 17.668 17.5196 17.5626 17.7071 17.3751C17.8946 17.1875 18 16.9332 18 16.668V14.668C18.0002 14.5366 17.9744 14.4065 17.9241 14.2852C17.8738 14.1639 17.8 14.0537 17.707 13.961L15 12.254Z" fill="white"/>
</svg>
