<svg width="24" height="25" viewBox="0 0 24 25" fill="none" xmlns="http://www.w3.org/2000/svg">
<path d="M21.7691 2.74268C21.6565 2.63075 21.5142 2.55325 21.359 2.5193C21.2038 2.48535 21.0422 2.49636 20.893 2.55103L2.53842 9.21735C2.38012 9.27732 2.24384 9.38397 2.14767 9.52313C2.05151 9.66229 2 9.82738 2 9.99648C2 10.1656 2.05151 10.3307 2.14767 10.4698C2.24384 10.609 2.38012 10.7156 2.53842 10.7756L9.70507 13.6338L14.9945 8.33406L16.1709 9.509L10.8564 14.8171L13.7264 21.975C13.7882 22.1301 13.8952 22.263 14.0336 22.3566C14.1719 22.4502 14.3352 22.5002 14.5023 22.5C14.6709 22.4965 14.8345 22.4421 14.9715 22.344C15.1085 22.2458 15.2126 22.1084 15.2699 21.95L21.9443 3.61764C22.0011 3.47021 22.0148 3.30968 21.9838 3.15476C21.9528 2.99985 21.8783 2.85694 21.7691 2.74268Z" fill="white"/>
</svg>
