<svg width="121" height="27" viewBox="0 0 121 27" fill="none" xmlns="http://www.w3.org/2000/svg">
<path d="M18.9047 19.2058C18.9047 18.0622 18.7235 17.0304 18.3612 16.1105C18.0231 15.1906 17.5038 14.4075 16.8033 13.7611C16.2478 13.2638 15.6078 12.866 14.8832 12.5677C14.1586 12.2445 13.1925 11.9834 11.9848 11.7845L9.0502 11.337C7.79424 11.1381 6.82811 10.7279 6.15183 10.1064C5.81368 9.78315 5.56008 9.42265 5.391 9.02486C5.24609 8.60221 5.17363 8.14227 5.17363 7.64503C5.17363 6.45166 5.57215 5.46961 6.3692 4.6989C7.19041 3.90332 8.36184 3.50553 9.88348 3.50553C10.9704 3.50553 11.9727 3.6547 12.8905 3.95304C13.8325 4.22652 14.702 4.76105 15.4991 5.55663L17.9989 3.02072C16.8879 1.95166 15.7044 1.18094 14.4484 0.708564C13.1925 0.236188 11.707 0 9.99217 0C8.6396 0 7.43194 0.186465 6.3692 0.559394C5.30647 0.932322 4.40073 1.46685 3.65198 2.16298C2.92739 2.85912 2.35979 3.69199 1.94919 4.6616C1.56274 5.60635 1.36951 6.65055 1.36951 7.7942C1.36951 9.95718 1.99749 11.6478 3.25345 12.866C4.4128 13.9848 6.04314 14.6934 8.14446 14.9917L11.1878 15.4392C11.9607 15.5635 12.5403 15.7003 12.9268 15.8494C13.3132 15.9986 13.6755 16.2348 14.0137 16.558C14.69 17.1796 15.0281 18.0994 15.0281 19.3177C15.0281 20.6105 14.5571 21.6174 13.6151 22.3384C12.6973 23.0345 11.3931 23.3826 9.70233 23.3826C8.37391 23.3826 7.17833 23.2086 6.1156 22.8605C5.05286 22.4876 4.05051 21.8163 3.10854 20.8467L0.5 23.4945C1.73181 24.7873 3.07231 25.6947 4.52149 26.2169C5.97068 26.7389 7.67347 27 9.62987 27C10.9824 27 12.2263 26.826 13.3615 26.4779C14.4967 26.1298 15.4749 25.6202 16.2961 24.9489C17.1173 24.2776 17.7574 23.4572 18.2163 22.4876C18.6752 21.518 18.9047 20.424 18.9047 19.2058Z" fill="white"/>
<path d="M44.3322 3.84116V0.223758H26.2174V3.84116H33.3184V26.7762H37.2312V3.84116H44.3322Z" fill="white"/>
<path d="M69.9466 26.7762L60.4907 0.223758H57.3387L47.8827 26.7762H52.0491L53.8244 21.4434H64.0049L65.7802 26.7762H69.9466ZM62.918 18.0124H54.9837L59.0052 6.2279L62.918 18.0124Z" fill="white"/>
<path d="M95.1624 26.7762L87.1557 13.1644L94.619 0.223758H90.1265L85.0181 9.73343L79.946 0.223758H75.4535L82.9168 13.1644L74.9463 26.7762H79.4388L85.0181 16.5953L90.6337 26.7762H95.1624Z" fill="white"/>
<path d="M120.5 13.5C120.5 12.232 120.488 11.0884 120.464 10.0691C120.44 9.02486 120.355 8.08011 120.21 7.23481C120.065 6.3895 119.824 5.60635 119.486 4.88536C119.147 4.16436 118.664 3.48066 118.036 2.83426C117.143 1.91437 116.128 1.21823 114.993 0.745858C113.858 0.248619 112.602 0 111.225 0C109.848 0 108.593 0.248619 107.457 0.745858C106.346 1.21823 105.344 1.91437 104.45 2.83426C103.822 3.48066 103.339 4.16436 103.001 4.88536C102.663 5.60635 102.409 6.3895 102.24 7.23481C102.095 8.08011 102.011 9.02486 101.987 10.0691C101.962 11.0884 101.95 12.232 101.95 13.5C101.95 14.768 101.962 15.924 101.987 16.9682C102.011 17.9876 102.095 18.9199 102.24 19.7652C102.409 20.6105 102.663 21.3936 103.001 22.1146C103.339 22.8356 103.822 23.5193 104.45 24.1657C105.344 25.0856 106.346 25.7942 107.457 26.2914C108.593 26.7638 109.848 27 111.225 27C112.602 27 113.858 26.7638 114.993 26.2914C116.128 25.7942 117.143 25.0856 118.036 24.1657C118.664 23.5193 119.147 22.8356 119.486 22.1146C119.824 21.3936 120.065 20.6105 120.21 19.7652C120.355 18.9199 120.44 17.9876 120.464 16.9682C120.488 15.924 120.5 14.768 120.5 13.5ZM116.587 13.5C116.587 14.8425 116.563 15.9613 116.515 16.8564C116.491 17.7265 116.418 18.4724 116.297 19.0939C116.201 19.6906 116.044 20.2003 115.826 20.6229C115.633 21.0207 115.38 21.3936 115.066 21.7417C114.607 22.239 114.039 22.6367 113.363 22.9351C112.711 23.2334 111.998 23.3826 111.225 23.3826C110.452 23.3826 109.728 23.2334 109.051 22.9351C108.399 22.6367 107.844 22.239 107.385 21.7417C107.071 21.3936 106.805 21.0207 106.588 20.6229C106.395 20.2003 106.238 19.6906 106.117 19.0939C106.02 18.4724 105.948 17.7265 105.899 16.8564C105.875 15.9613 105.863 14.8425 105.863 13.5C105.863 12.1575 105.875 11.0511 105.899 10.1809C105.948 9.28591 106.02 8.54006 106.117 7.94337C106.238 7.32182 106.395 6.81216 106.588 6.41437C106.805 5.99171 107.071 5.60636 107.385 5.25829C107.844 4.76105 108.399 4.36326 109.051 4.06492C109.728 3.76658 110.452 3.6174 111.225 3.6174C111.998 3.6174 112.711 3.76658 113.363 4.06492C114.039 4.36326 114.607 4.76105 115.066 5.25829C115.38 5.60636 115.633 5.99171 115.826 6.41437C116.044 6.81216 116.201 7.32182 116.297 7.94337C116.418 8.54006 116.491 9.28591 116.515 10.1809C116.563 11.0511 116.587 12.1575 116.587 13.5Z" fill="white"/>
</svg>
