<svg width="25" height="25" viewBox="0 0 25 25" fill="none" xmlns="http://www.w3.org/2000/svg">
<path d="M20.5 2.5H4.5C3.96957 2.5 3.46086 2.71071 3.08579 3.08579C2.71071 3.46086 2.5 3.96957 2.5 4.5V16.5C2.5 17.0304 2.71071 17.5391 3.08579 17.9142C3.46086 18.2893 3.96957 18.5 4.5 18.5H10.5V20.5H7.5V22.5H17.5V20.5H14.5V18.5H20.5C21.0304 18.5 21.5391 18.2893 21.9142 17.9142C22.2893 17.5391 22.5 17.0304 22.5 16.5V4.5C22.5 3.96957 22.2893 3.46086 21.9142 3.08579C21.5391 2.71071 21.0304 2.5 20.5 2.5ZM20.5 16.5H4.5V4.5H20.5V16.5Z" fill="url(#paint0_linear)"/>
<defs>
<linearGradient id="paint0_linear" x1="22.5" y1="2.5" x2="2.48382" y2="22.4838" gradientUnits="userSpaceOnUse">
<stop offset="0.583333" stop-color="#3742FA"/>
<stop offset="1" stop-color="#6A20C9"/>
</linearGradient>
</defs>
</svg>
