<svg width="24" height="25" viewBox="0 0 24 25" fill="none" xmlns="http://www.w3.org/2000/svg">
<path d="M20.0404 15.8065L17.2125 15.4837C16.88 15.4446 16.5429 15.4814 16.2267 15.5913C15.9104 15.7013 15.6232 15.8814 15.3866 16.1183L13.338 18.1668C10.1774 16.5594 7.60846 13.9904 6.00102 10.8298L8.06073 8.77015C8.53947 8.29141 8.77327 7.6234 8.69534 6.94425L8.37246 4.1386C8.30934 3.59548 8.04869 3.09454 7.64014 2.73116C7.23159 2.36777 6.70367 2.16732 6.15689 2.16797H4.23079C2.97271 2.16797 1.92616 3.21452 2.00409 4.47261C2.59417 13.9806 10.1984 21.5737 19.6953 22.1638C20.9533 22.2417 21.9999 21.1952 21.9999 19.9371V18.011C22.011 16.8865 21.1649 15.9401 20.0404 15.8065Z" fill="white"/>
</svg>
