<svg width="24" height="25" viewBox="0 0 24 25" fill="none" xmlns="http://www.w3.org/2000/svg">
<path d="M14.9013 12.0117L16.1131 13.2812L14.603 14.8633C14.4911 14.9805 14.4911 15.0977 14.603 15.2148L14.9199 15.5469C15.0318 15.6641 15.1436 15.6641 15.2555 15.5469L16.7656 13.9648L19.0961 16.4062L17.5859 17.9883C17.4741 18.1055 17.4741 18.2161 17.5859 18.3203L17.9029 18.6719C18.0147 18.7891 18.1266 18.7891 18.2385 18.6719L19.7486 17.0898L20.9231 18.3203C21.035 18.4375 21.0909 18.5807 21.0909 18.75C21.0909 18.9193 21.035 19.069 20.9231 19.1992L17.9402 22.3242C17.8159 22.4414 17.6729 22.5 17.5114 22.5C17.3498 22.5 17.2131 22.4414 17.1012 22.3242L11.0794 16.0156L7.5744 19.6875C7.37553 19.8958 7.13317 20 6.8473 20C6.56143 20 6.31907 19.8958 6.12021 19.6875L4.7033 18.1836C4.50444 17.9753 4.40501 17.7246 4.40501 17.4316C4.40501 17.1387 4.50444 16.888 4.7033 16.6797L8.20827 13.0078L2.16779 6.67969C2.05593 6.5625 2 6.41927 2 6.25C2 6.08073 2.05593 5.9375 2.16779 5.82031L5.15075 2.67578C5.27504 2.55859 5.41797 2.5 5.57955 2.5C5.74112 2.5 5.87784 2.55859 5.9897 2.67578L7.16424 3.90625L5.65412 5.48828C5.54226 5.60547 5.54226 5.72266 5.65412 5.83984L5.97106 6.17188C6.08292 6.28906 6.19478 6.28906 6.30664 6.17188L7.81676 4.58984L10.1472 7.03125L8.63707 8.61328C8.52521 8.73047 8.52521 8.84766 8.63707 8.96484L8.95401 9.29688C9.06587 9.41406 9.17773 9.41406 9.2896 9.29688L10.7997 7.71484L12.0115 9.00391L17.9215 2.8125C18.1204 2.60417 18.3596 2.5 18.6393 2.5C18.9189 2.5 19.1582 2.60417 19.3571 2.8125L20.7926 4.31641C20.9915 4.52474 21.0909 4.77539 21.0909 5.06836C21.0909 5.36133 20.9915 5.61198 20.7926 5.82031L14.9013 12.0117ZM3.23047 18.2812C3.25533 18.3854 3.29883 18.4701 3.36097 18.5352L5.78462 21.0742C5.84677 21.1393 5.92756 21.1849 6.02699 21.2109C5.96484 21.3411 5.91513 21.4193 5.87784 21.4453L2.59659 22.5C2.2983 22.5 2.12429 22.474 2.07457 22.4219C2.02486 22.3698 2 22.1875 2 21.875L3.00675 18.4375C3.03161 18.4115 3.10618 18.3594 3.23047 18.2812Z" fill="white"/>
</svg>
