<svg width="24" height="24" viewBox="0 0 24 24" fill="none" xmlns="http://www.w3.org/2000/svg">
<path d="M21.598 11.0641C21.4777 10.9733 21.3384 10.9107 21.1906 10.8809C21.0428 10.8511 20.8902 10.8549 20.744 10.8921C20.5017 10.9598 20.2516 10.9961 20 11.0001C18.346 11.0001 17 9.65411 16.997 8.06211C17.002 8.02811 17.013 7.92811 17.014 7.89411C17.0205 7.73778 16.9902 7.5821 16.9255 7.43964C16.8608 7.29719 16.7634 7.17195 16.6414 7.07403C16.5193 6.97612 16.376 6.90828 16.2229 6.87598C16.0698 6.84368 15.9112 6.84784 15.76 6.88811C15.5125 6.95784 15.2571 6.99548 15 7.00011C13.346 7.00011 12 5.65411 12 4.00011C12 3.78311 12.031 3.55611 12.099 3.28411C12.1375 3.12886 12.1382 2.96663 12.101 2.81105C12.0638 2.65547 11.9899 2.51108 11.8854 2.39C11.7808 2.26891 11.6488 2.17467 11.5003 2.11518C11.3518 2.0557 11.1912 2.0327 11.032 2.04811C8.55548 2.27893 6.25504 3.42838 4.58347 5.27022C2.9119 7.11205 1.99028 9.51286 2.00002 12.0001C2.00002 17.5141 6.48602 22.0001 12 22.0001C17.514 22.0001 22 17.5141 22 12.0001C22 11.9511 21.997 11.9031 21.993 11.8401C21.9897 11.6894 21.9524 11.5414 21.884 11.4071C21.8156 11.2727 21.7179 11.1555 21.598 11.0641ZM8.50002 6.00011C8.89784 6.00011 9.27937 6.15815 9.56068 6.43945C9.84198 6.72076 10 7.10229 10 7.50011C10 7.89794 9.84198 8.27947 9.56068 8.56077C9.27937 8.84208 8.89784 9.00011 8.50002 9.00011C8.10219 9.00011 7.72066 8.84208 7.43935 8.56077C7.15805 8.27947 7.00002 7.89794 7.00002 7.50011C7.00002 7.10229 7.15805 6.72076 7.43935 6.43945C7.72066 6.15815 8.10219 6.00011 8.50002 6.00011ZM6.50002 14.0001C6.30303 14.0001 6.10798 13.9613 5.92599 13.8859C5.744 13.8106 5.57864 13.7001 5.43935 13.5608C5.30007 13.4215 5.18958 13.2561 5.1142 13.0741C5.03881 12.8921 5.00002 12.6971 5.00002 12.5001C5.00002 12.3031 5.03881 12.1081 5.1142 11.9261C5.18958 11.7441 5.30007 11.5787 5.43935 11.4395C5.57864 11.3002 5.744 11.1897 5.92599 11.1143C6.10798 11.0389 6.30303 11.0001 6.50002 11.0001C6.89784 11.0001 7.27937 11.1581 7.56068 11.4395C7.84198 11.7208 8.00002 12.1023 8.00002 12.5001C8.00002 12.8979 7.84198 13.2795 7.56068 13.5608C7.27937 13.8421 6.89784 14.0001 6.50002 14.0001ZM9.50002 18.0001C9.10219 18.0001 8.72066 17.8421 8.43935 17.5608C8.15805 17.2795 8.00002 16.8979 8.00002 16.5001C8.00002 16.1023 8.15805 15.7208 8.43935 15.4395C8.72066 15.1581 9.10219 15.0001 9.50002 15.0001C9.89784 15.0001 10.2794 15.1581 10.5607 15.4395C10.842 15.7208 11 16.1023 11 16.5001C11 16.8979 10.842 17.2795 10.5607 17.5608C10.2794 17.8421 9.89784 18.0001 9.50002 18.0001ZM12 11.5001C12 11.1023 12.1581 10.7208 12.4394 10.4395C12.7207 10.1581 13.1022 10.0001 13.5 10.0001C13.8978 10.0001 14.2794 10.1581 14.5607 10.4395C14.842 10.7208 15 11.1023 15 11.5001C15 11.8979 14.842 12.2795 14.5607 12.5608C14.2794 12.8421 13.8978 13.0001 13.5 13.0001C13.1022 13.0001 12.7207 12.8421 12.4394 12.5608C12.1581 12.2795 12 11.8979 12 11.5001ZM15.5 18.0001C15.1022 18.0001 14.7207 17.8421 14.4394 17.5608C14.1581 17.2795 14 16.8979 14 16.5001C14 16.1023 14.1581 15.7208 14.4394 15.4395C14.7207 15.1581 15.1022 15.0001 15.5 15.0001C15.8978 15.0001 16.2794 15.1581 16.5607 15.4395C16.842 15.7208 17 16.1023 17 16.5001C17 16.8979 16.842 17.2795 16.5607 17.5608C16.2794 17.8421 15.8978 18.0001 15.5 18.0001Z" fill="white"/>
</svg>
