<svg width="24" height="24" viewBox="0 0 24 24" fill="none" xmlns="http://www.w3.org/2000/svg">
<path fill-rule="evenodd" clip-rule="evenodd" d="M12 2C6.47768 2 2 6.47768 2 12C2 17.5223 6.47768 22 12 22C17.5223 22 22 17.5223 22 12C22 6.47768 17.5223 2 12 2ZM12.0305 15.5088C12.8708 15.5088 13.4987 15.0612 13.9143 14.166H15.5C15.2832 15.0792 14.8698 15.7809 14.2599 16.2713C13.632 16.7571 12.8888 17 12.0305 17C11.2535 16.982 10.6052 16.7931 10.0857 16.4332C9.55712 16.0868 9.17312 15.6865 8.93369 15.2321C8.86141 15.0837 8.7959 14.942 8.73717 14.807C8.68296 14.6676 8.63779 14.4921 8.60165 14.2807C8.53388 13.8848 8.5 13.1246 8.5 12C8.5 10.8574 8.53388 10.0927 8.60165 9.7058C8.67393 9.31894 8.78461 9.0063 8.93369 8.76788C9.17312 8.31354 9.55712 7.90868 10.0857 7.55331C10.6052 7.19343 11.2535 7.009 12.0305 7C12.9837 7.009 13.7607 7.29015 14.3616 7.84345C14.9624 8.40126 15.3419 9.09177 15.5 9.91498H13.9143C13.7924 9.51912 13.571 9.18174 13.2502 8.90283C12.9159 8.63743 12.5094 8.50023 12.0305 8.49123C11.6781 8.50023 11.3754 8.56995 11.1225 8.70041C10.865 8.83536 10.6571 9.00405 10.499 9.20648C10.3048 9.4179 10.176 9.69006 10.1128 10.0229C10.0405 10.3738 10.0044 11.0328 10.0044 12C10.0044 12.9672 10.0405 13.6217 10.1128 13.9636C10.176 14.3054 10.3048 14.5821 10.499 14.7935C10.6571 14.996 10.865 15.1601 11.1225 15.2861C11.3754 15.4345 11.6781 15.5088 12.0305 15.5088Z" fill="white"/>
</svg>
