<svg width="24" height="25" viewBox="0 0 24 25" fill="none" xmlns="http://www.w3.org/2000/svg">
<path d="M19 11.5C20.13 11.5 21.16 11.11 22 10.48V19.5C22 20.6 21.1 21.5 20 21.5H4C2.9 21.5 2 20.6 2 19.5V7.5C2 6.4 2.9 5.5 4 5.5H14.1C14.04 5.82 14 6.16 14 6.5C14 7.98 14.65 9.29 15.67 10.21L12 12.5L5.3 8.31C5.20546 8.24453 5.09863 8.19893 4.98595 8.17595C4.87328 8.15297 4.75712 8.15309 4.6445 8.1763C4.53187 8.19951 4.42513 8.24533 4.33073 8.311C4.23632 8.37666 4.15623 8.46079 4.09528 8.5583C4.03434 8.65581 3.99381 8.76468 3.97616 8.87831C3.9585 8.99194 3.96409 9.10796 3.99258 9.21937C4.02106 9.33078 4.07186 9.43525 4.14189 9.52645C4.21192 9.61766 4.29973 9.69371 4.4 9.75L11.47 14.17C11.79 14.37 12.21 14.37 12.53 14.17L17.3 11.19C17.84 11.38 18.4 11.5 19 11.5ZM16 6.5C16 8.16 17.34 9.5 19 9.5C20.66 9.5 22 8.16 22 6.5C22 4.84 20.66 3.5 19 3.5C17.34 3.5 16 4.84 16 6.5Z" fill="white"/>
</svg>
